<svg width="213" height="218" viewBox="0 0 213 218" fill="none" xmlns="http://www.w3.org/2000/svg">
<path d="M168.882 152.778C158.309 170.753 130.942 195.534 103.382 191.364M103.382 191.364C91.8432 189.619 75.8821 184.778 69.8821 168.278L56.8821 127.778M103.382 191.364L105.382 212.778M56.8821 127.778C55.5488 127.778 51.4821 127.778 45.8821 127.778C-10.117 127.778 -7.11708 28.7782 45.8821 28.7782H74.3829M56.8821 127.778H84.3829M84.3829 127.778H126.882C132.19 127.778 137.045 126.889 141.432 125.278M84.3829 127.778L82.5636 139.058C82.1952 141.342 83.8357 143.461 86.1392 143.677L97.8829 144.778M156.383 39.5382C149.266 32.9322 139.48 28.7782 126.882 28.7782H122.883M156.383 39.5382C180.717 62.1253 173.843 113.379 141.432 125.278M156.383 39.5382L199.883 78.9783M141.432 125.278L189.761 108.988C190.173 108.849 190.605 108.778 191.039 108.778H199.59C201.503 108.778 203.148 107.424 203.515 105.546L206.95 87.9935C207.219 86.6186 206.749 85.2031 205.711 84.2621L199.883 78.9783M122.883 28.7782H74.3829M122.883 28.7782C125.811 17.7954 136.782 6.0083 156.383 10.8849M199.883 78.9783C207.383 67.7783 196.383 35.7784 181.383 23.7783C171.639 15.9827 168.383 14.9299 156.383 10.8849M74.3829 28.7782C81.5496 16.016 107.983 -5.42983 156.383 10.8849" stroke="#4960E6" stroke-width="10" stroke-linecap="round" stroke-linejoin="round"/>
</svg>
