<svg width="480" height="351" viewBox="0 0 480 351" fill="none" xmlns="http://www.w3.org/2000/svg">
<path fill-rule="evenodd" clip-rule="evenodd" d="M480 0H0V351H480V0ZM390.722 102.821C302.404 70.3977 171.957 69.0618 90.6543 102.821C87.7017 104.047 85.5931 106.663 84.9512 109.795C74.44 161.083 74.3504 205.88 84.6823 258.349C85.4552 262.274 88.5377 265.346 92.485 265.994C120.936 270.671 151.588 269.462 172.092 267.659C186.861 266.361 198.711 255.867 205.54 242.708C213.474 227.419 225.89 209.815 241 209.815C256.739 209.815 269.555 228.914 277.427 244.603C283.565 256.835 294.055 266.871 307.609 268.769C328.187 271.651 360.338 273.892 390.011 266.461C393.701 265.537 396.409 262.439 397.014 258.684C406.142 202.106 405.708 163.967 396.936 110.403C396.368 106.935 394.021 104.032 390.722 102.821Z" fill="black"/>
<path d="M82.2284 96.3217C124.997 77.4089 180.817 68.3156 237.594 68.5028C294.368 68.6901 352.056 78.1569 398.552 96.3268C401.619 97.5251 403.778 100.28 404.287 103.543C413.657 163.655 414.122 202.315 404.365 265.833C403.819 269.382 401.31 272.32 397.865 273.258C365.966 281.941 328.826 280.988 305.01 278.974C290.173 277.72 278.326 266.994 272.1 253.352C268.435 245.321 263.765 236.637 258.361 229.953C252.974 223.291 246.763 218.5 240 218.5C237.147 218.5 234.224 219.794 231.335 221.924C228.442 224.057 225.541 227.06 222.722 230.555C217.084 237.548 211.725 246.578 207.379 254.758C200.533 267.643 188.121 276.977 173.613 277.551C150.846 278.451 115.473 278.495 84.0311 272.779C80.3051 272.101 77.4178 269.163 76.7161 265.43C65.6728 206.674 65.7623 160.43 76.9832 102.964C77.5586 100.017 79.4921 97.5317 82.2284 96.3217Z" stroke="white"/>
</svg>
